<?xml version="1.0" standalone="no"?>
<!DOCTYPE svg PUBLIC "-//W3C//DTD SVG 20010904//EN"
 "http://www.w3.org/TR/2001/REC-SVG-20010904/DTD/svg10.dtd">
<svg version="1.0" xmlns="http://www.w3.org/2000/svg"
 width="260.000000pt" height="260.000000pt" viewBox="0 0 260.000000 260.000000"
 preserveAspectRatio="xMidYMid meet">
<metadata>
Created by potrace 1.11, written by Peter Selinger 2001-2013
</metadata>
<g transform="translate(0.000000,260.000000) scale(0.100000,-0.100000)"
fill="#000000" stroke="none">
<path d="M940 2535 c-19 -23 -8 -134 15 -151 21 -16 67 -11 124 12 33 14 34
14 27 64 -9 67 -14 77 -39 84 -43 11 -114 6 -127 -9z"/>
<path d="M1342 2538 c-7 -7 -12 -36 -12 -65 0 -49 2 -54 28 -64 27 -11 117 -8
129 4 3 4 8 28 11 55 6 66 -11 82 -87 82 -31 0 -62 -5 -69 -12z"/>
<path d="M1719 2429 c-16 -34 -28 -68 -25 -76 3 -7 35 -28 71 -45 52 -24 68
-28 80 -18 14 12 55 110 55 133 0 15 -101 67 -130 67 -14 0 -29 -18 -51 -61z"/>
<path d="M603 2380 c-63 -36 -66 -53 -22 -122 25 -38 37 -48 58 -48 39 1 105
50 109 83 4 32 -51 117 -76 117 -9 0 -41 -14 -69 -30z"/>
<path d="M2058 2215 c-27 -24 -48 -47 -48 -52 0 -5 22 -31 49 -57 59 -58 76
-57 140 8 34 35 42 49 38 68 -7 25 -83 78 -113 78 -10 -1 -40 -20 -66 -45z"/>
<path d="M297 2102 c-59 -60 -44 -112 47 -159 27 -14 30 -13 58 14 40 38 71
90 64 108 -7 19 -94 75 -116 75 -9 0 -33 -17 -53 -38z"/>
<path d="M2323 1920 c-35 -16 -63 -35 -63 -42 0 -22 46 -112 65 -128 15 -13
24 -11 81 20 38 20 64 41 64 50 0 20 -61 123 -75 126 -5 2 -38 -10 -72 -26z"/>
<path d="M108 1778 c-18 -30 -47 -98 -50 -122 -2 -16 10 -23 68 -41 46 -14 77
-19 87 -13 20 11 52 110 44 132 -4 9 -26 25 -49 35 -78 33 -84 33 -100 9z"/>
<path d="M2482 1555 c-30 -7 -58 -17 -64 -23 -15 -15 -21 -93 -9 -124 10 -26
15 -28 65 -28 67 0 76 12 76 102 0 84 -3 88 -68 73z"/>
<path d="M61 1382 c-6 -11 -11 -50 -11 -86 0 -84 14 -100 82 -94 27 3 52 8 56
12 9 10 9 162 -1 172 -4 4 -31 9 -61 12 -47 4 -56 2 -65 -16z"/>
<path d="M2413 1158 c-4 -7 -13 -40 -20 -73 -14 -74 -9 -81 71 -97 54 -10 60
-10 72 7 14 19 18 83 8 122 -5 17 -20 27 -57 38 -61 18 -64 18 -74 3z"/>
<path d="M117 1048 c-43 -11 -69 -50 -60 -89 20 -89 24 -99 42 -99 36 0 130
42 136 61 4 10 1 45 -6 79 -11 58 -12 60 -43 59 -17 -1 -48 -6 -69 -11z"/>
<path d="M2263 745 c-19 -42 -34 -77 -32 -79 21 -16 98 -64 111 -69 23 -8 62
25 87 75 19 40 20 43 3 61 -17 20 -116 87 -127 87 -3 0 -22 -34 -42 -75z"/>
<path d="M272 674 c-28 -25 -52 -54 -52 -63 0 -10 14 -37 30 -59 38 -53 67
-54 138 -7 28 20 52 38 52 42 0 12 -95 132 -105 133 -6 0 -34 -21 -63 -46z"/>
<path d="M2029 461 c-22 -21 -39 -48 -39 -60 0 -29 22 -71 53 -99 29 -27 49
-22 105 31 38 36 41 66 11 113 -40 65 -76 69 -130 15z"/>
<path d="M532 376 l-51 -64 62 -51 c34 -28 65 -51 69 -51 11 0 103 110 103
123 0 11 -112 107 -125 107 -4 0 -30 -29 -58 -64z"/>
<path d="M1710 269 c-30 -10 -59 -24 -64 -29 -11 -11 20 -127 40 -149 11 -12
20 -12 51 -3 65 20 103 49 103 77 0 38 -49 127 -69 124 -3 0 -31 -9 -61 -20z"/>
<path d="M896 218 c-8 -13 -20 -45 -27 -72 -12 -47 -11 -50 11 -68 21 -17 46
-22 99 -20 34 2 48 19 63 75 15 57 7 75 -43 93 -54 20 -87 17 -103 -8z"/>
<path d="M1313 182 c-16 -10 -33 -57 -33 -92 0 -35 17 -42 95 -39 63 3 75 14
75 73 0 60 -6 66 -69 66 -31 0 -61 -4 -68 -8z"/>
</g>
</svg>
